<svg xmlns="http://www.w3.org/2000/svg" viewBox="0 0 216 288"><defs><style>.cls-1{fill:#fff;}.cls-2{fill:#0c90bc;}</style></defs><title>name-tag-2</title><g id="Layer_2" data-name="Layer 2"><g id="Layer_3" data-name="Layer 3"><rect class="cls-1" x="6" y="6" width="204" height="276"/><path class="cls-2" d="M204,12V276H12V12H204M216,0H0V288H216V0Z"/><polygon class="cls-2" points="119.35 82.76 109.12 33.87 98.95 82.51 72.4 102 72.4 118.07 72.41 118.1 109 91.27 145.5 118.07 145.5 101.94 119.35 82.76"/><polygon class="cls-2" points="109 98.77 108.97 98.74 72.4 125.57 72.4 141.64 72.41 141.68 109 114.86 145.5 141.64 145.5 125.53 109 98.74 109 98.77"/><polygon class="cls-2" points="109 122.34 108.97 122.32 72.4 149.15 72.4 165.24 72.41 165.26 109 138.43 145.5 165.24 145.5 149.12 109 122.32 109 122.34"/></g></g></svg>