<svg xmlns="http://www.w3.org/2000/svg" viewBox="0 0 216 288"><defs><style>.cls-1,.cls-2{fill:#414042;}.cls-2{opacity:0.95;}.cls-3{fill:#fff;}.cls-4{fill:none;stroke:#fff;stroke-miterlimit:10;}</style></defs><title>name-tag-1</title><g id="Layer_2" data-name="Layer 2"><g id="Layer_1-2" data-name="Layer 1"><polygon class="cls-1" points="0 0 0 288 216 0 0 0"/><polygon class="cls-2" points="0 288 216 288 216 0 0 288"/><polygon class="cls-3" points="119.35 66.27 109.12 17.38 98.95 66.02 72.4 85.51 72.4 101.58 72.41 101.61 109 74.78 145.5 101.58 145.5 85.45 119.35 66.27"/><polygon class="cls-3" points="109 82.28 108.97 82.25 72.4 109.08 72.4 125.15 72.41 125.19 109 98.37 145.5 125.15 145.5 109.04 109 82.25 109 82.28"/><polygon class="cls-3" points="109 105.85 108.97 105.83 72.4 132.66 72.4 148.75 72.41 148.77 109 121.95 145.5 148.75 145.5 132.63 109 105.83 109 105.85"/><line class="cls-4" x1="11.95" y1="183" x2="206.53" y2="183"/></g></g></svg>