<svg xmlns="http://www.w3.org/2000/svg" viewBox="0 0 265.73 114.37"><defs><style>.cls-1,.cls-2,.cls-3{fill:#636464;}.cls-2{font-size:41.07px;font-family:Gibson-Bold, Gibson;}.cls-2,.cls-3{font-weight:700;}.cls-3{font-size:18.06px;font-family:Gibson-SemiBold, Gibson;}.cls-4{letter-spacing:-0.01em;}.cls-5{letter-spacing:-0.04em;}</style></defs><title>vertical-church-logo-grey</title><g id="Layer_2" data-name="Layer 2"><g id="Vertical_Church_Charleston_Logo_Image" data-name="Vertical Church Charleston Logo Image"><polygon class="cls-1" points="40.06 41.72 31.34 0 22.66 41.51 0 58.14 0 71.85 0 71.88 31.23 48.98 62.38 71.85 62.38 58.09 40.06 41.72"/><polygon class="cls-1" points="31.23 55.38 31.2 55.35 0 78.25 0 91.97 0 92 31.23 69.11 62.38 91.97 62.38 78.22 31.23 55.35 31.23 55.38"/><polygon class="cls-1" points="31.23 75.5 31.2 75.48 0 98.38 0 112.1 0 112.12 31.23 89.23 62.38 112.1 62.38 98.35 31.23 75.48 31.23 75.5"/><text class="cls-2" transform="translate(72.64 56.44)">VERTICAL</text><text class="cls-2" transform="translate(72.64 92.19)">CHURCH</text><text class="cls-3" transform="translate(77.73 110.64)">CHARLE<tspan class="cls-4" x="66.57" y="0">S</tspan><tspan class="cls-5" x="76.35" y="0">T</tspan><tspan x="85.04" y="0">ON</tspan></text></g></g></svg>